<svg xmlns="http://www.w3.org/2000/svg" xmlns:xlink="http://www.w3.org/1999/xlink" fill="none" version="1.1" width="64" height="64" viewBox="0 0 64 64"><defs><linearGradient x1="0.13770389556884766" y1="0" x2="0.8696699142456055" y2="1" id="master_svg0_1_2962"><stop offset="0%" stop-color="#EDD812" stop-opacity="1"/><stop offset="67.28568077087402%" stop-color="#F2E99C" stop-opacity="1"/></linearGradient></defs><g><rect x="0" y="0" width="64" height="64" rx="16" fill="#4DBCF8" fill-opacity="1"/><rect x="1" y="1" width="62" height="62" rx="15" stroke="url(#master_svg0_1_2962)" fill-opacity="0" fill="none" stroke-width="2"/><path d="M36.266159,17.12819Q36.290478,17.203032999999998,36.326206,17.273151Q36.361937,17.34327,36.408195,17.406937Q36.454453,17.470602,36.510101,17.526249Q36.56575,17.581896,36.629417000000004,17.628154000000002Q36.693081,17.67441,36.763199,17.710138Q36.833319,17.745866,36.908165,17.770186000000002Q36.983008999999996,17.794506,37.060738,17.806820000000002Q37.138466,17.819134,37.217165,17.819138000000002L47.943844,17.819543Q47.983131,17.819546000000003,48.022301,17.82263Q48.06147,17.825713999999998,48.100277,17.831861Q48.139084,17.838009,48.177284,17.847181Q48.215485,17.856354,48.25285,17.868496Q48.290218,17.880637999999998,48.326519,17.895676Q48.362816,17.910711,48.397823,17.928549Q48.432831,17.946386,48.466328,17.966915Q48.499825,17.987444,48.531609,18.010538Q48.563393,18.033632,48.593269,18.059148999999998Q48.623146,18.084666,48.650928,18.112448Q48.678711,18.140230000000003,48.704224,18.170107Q48.72974,18.199982,48.752834,18.231768000000002Q48.775928,18.263554,48.796455,18.297052Q48.816986,18.330551,48.83482,18.365558999999998Q48.852654,18.400565,48.867687,18.436863000000002Q48.882721,18.473162000000002,48.894863,18.510527Q48.907005,18.547894,48.91618,18.586098Q48.925354,18.624301000000003,48.931499,18.663106Q48.937645,18.701911000000003,48.940727,18.741078Q48.94381,18.780245999999998,48.94381,18.819534Q48.94381,18.858824,48.940727,18.897990999999998Q48.937645,18.93716,48.931499,18.975965000000002Q48.925354,19.014771,48.916183,19.052973Q48.907013,19.091177000000002,48.894871,19.128542Q48.882729,19.165908,48.867699,19.202208Q48.852661,19.238506,48.834827,19.273514Q48.816994,19.30852,48.796463,19.342019999999998Q48.775936,19.37552,48.752842,19.407306Q48.729752,19.439093,48.704235,19.468968Q48.678719,19.498846,48.65094,19.526628000000002Q48.623158,19.55441,48.593281,19.579926999999998Q48.563408,19.605444,48.53162,19.628537L39.853794,25.933849Q39.790127,25.980106,39.734480000000005,26.035755Q39.678833,26.091404,39.632577999999995,26.155071Q39.586321,26.218739,39.550594000000004,26.288858Q39.514868,26.35898,39.490550999999996,26.433826Q39.466229999999996,26.508671,39.453918,26.586399Q39.441604999999996,26.664127,39.441604999999996,26.742825Q39.441604999999996,26.821522,39.453914999999995,26.899248Q39.466225,26.976978,39.490541,27.051826L42.804882,37.253628Q42.817024,37.290993,42.826195,37.329197Q42.835364999999996,37.367401,42.841511,37.406208Q42.847656,37.445015,42.850739000000004,37.48418Q42.853819,37.52335,42.853817,37.562637Q42.853817,37.601929,42.850735,37.641098Q42.847651,37.680267,42.841503,37.71907Q42.835356000000004,37.757877,42.826183,37.796082Q42.817009,37.834282,42.804867,37.871647Q42.792727,37.909012,42.777691000000004,37.945309Q42.762657000000004,37.981609,42.744820000000004,38.016617Q42.726982,38.051624,42.706452999999996,38.085125Q42.685925,38.118622,42.662828000000005,38.150406Q42.639736,38.18219,42.61422,38.212067Q42.588702999999995,38.241943,42.560921,38.269726Q42.533138,38.297504,42.503263000000004,38.323021Q42.473389,38.348534,42.441601,38.371628Q42.409817000000004,38.394722,42.376318,38.415253Q42.342819,38.435783,42.307814,38.453617Q42.272808,38.471458,42.236509,38.486492Q42.200210999999996,38.501526,42.162844,38.513668Q42.125479,38.52581,42.087276,38.534985Q42.049074000000005,38.544159,42.010269,38.550304Q41.971464,38.55645,41.932294999999996,38.559532Q41.893127,38.562614,41.853836,38.562614Q41.814548,38.562614,41.775380999999996,38.559536Q41.736214000000004,38.556454,41.697407,38.550308Q41.6586,38.544163,41.620398,38.534992Q41.582193000000004,38.525818,41.544827,38.51368Q41.507462000000004,38.501541,41.471160999999995,38.486507Q41.434864000000005,38.471474,41.399855,38.453636Q41.364847,38.435799,41.331347,38.415272Q41.297844,38.394745,41.266058,38.371651L32.587755,32.066994Q32.52409,32.020741,32.453968,31.985016Q32.383848,31.949291,32.309,31.924973Q32.234158,31.900658,32.156429,31.888346Q32.078700999999995,31.876036,32.000001999999995,31.876034Q31.921307,31.876036,31.843578,31.888348Q31.76585,31.900658,31.691002,31.924973Q31.616158,31.949291,31.546036,31.985018Q31.475916,32.020741,31.412245,32.066994L22.733942,38.371651Q22.702156000000002,38.394745,22.668656,38.415272Q22.635157,38.435799,22.600149000000002,38.453636Q22.565143,38.471474,22.528844,38.486507Q22.492545,38.501541,22.455178,38.51368Q22.417811999999998,38.525818,22.379609000000002,38.534988Q22.341406,38.544159,22.302599999999998,38.550308Q22.263794,38.55645,22.224626999999998,38.559532Q22.185459,38.562614,22.146169999999998,38.562611Q22.106882,38.562611,22.067714000000002,38.559528Q22.028547,38.556446,21.9897413,38.550301Q21.950936300000002,38.544151,21.9127331,38.534981Q21.8745289,38.52581,21.837163,38.513668Q21.7997971,38.501526,21.763498300000002,38.486492Q21.727200500000002,38.471458,21.692194,38.453617Q21.6571865,38.435783,21.623687699999998,38.415253Q21.590187999999998,38.394722,21.558403,38.371628Q21.5266171,38.348534,21.4967422,38.323021Q21.466866500000002,38.297504,21.439085,38.269726Q21.411303500000002,38.241943,21.385787,38.212067Q21.3602715,38.18219,21.3371773,38.150406Q21.314083099999998,38.118622,21.2935543,38.085121Q21.2730255,38.051624,21.255188,38.016617Q21.237350499999998,37.981609,21.2223148,37.945312Q21.207279200000002,37.909012,21.195137000000003,37.871647Q21.1829948,37.834282,21.1738234,37.796082Q21.16465,37.757881,21.158503500000002,37.719074Q21.1523571,37.680267,21.1492729,37.641098Q21.1461887,37.601929,21.1461878,37.562641Q21.146186800000002,37.523354,21.149269099999998,37.484184Q21.1523495,37.445019,21.1584949,37.406212Q21.1646395,37.367409,21.1738091,37.329201Q21.1829796,37.291,21.1951189,37.253632L24.509458000000002,27.051828Q24.533772,26.976978,24.546082,26.89925Q24.55839,26.821522,24.558388,26.742825Q24.558386,26.664127,24.546074,26.586399Q24.533762,26.508673,24.509445,26.433828Q24.485126,26.358982,24.449398000000002,26.28886Q24.413671,26.218742,24.367416,26.155075Q24.32116,26.091406,24.265514,26.035755Q24.209868999999998,25.980108,24.146206,25.933851L15.468378099999999,19.628539Q15.4365938,19.605445,15.4067192,19.579928000000002Q15.3768449,19.554411,15.3490641,19.526629Q15.3212838,19.498846,15.2957683,19.46897Q15.270253199999999,19.439093,15.2471604,19.407307Q15.2240682,19.375521,15.2035406,19.342022Q15.183012999999999,19.308521,15.165177100000001,19.273514Q15.147341,19.238506,15.1323066,19.202208Q15.1172719,19.165909,15.1051316,19.128542Q15.092991399999999,19.091177000000002,15.0838203,19.052973Q15.0746493,19.014771,15.0685039,18.975965000000002Q15.0623584,18.93716,15.0592763,18.897992000000002Q15.056194099999999,18.858824,15.0561943,18.819535000000002Q15.0561948,18.780247,15.0592775,18.741079Q15.0623608,18.701912,15.068507,18.663106Q15.074653099999999,18.624301000000003,15.0838246,18.586097000000002Q15.0929966,18.547894,15.105137299999999,18.510527Q15.1172783,18.473162000000002,15.1323135,18.436863000000002Q15.1473489,18.400565,15.1651855,18.365558999999998Q15.183022,18.330551,15.2035503,18.297052Q15.2240787,18.263554,15.2471716,18.231768000000002Q15.2702649,18.199982,15.2957807,18.170107Q15.321296199999999,18.140230000000003,15.3490772,18.112448999999998Q15.376858200000001,18.084667,15.4067335,18.059150000000002Q15.4366083,18.033632,15.468393299999999,18.010538Q15.5001786,17.987445,15.5336776,17.966915999999998Q15.5671766,17.946388,15.602182899999999,17.928551Q15.6371891,17.910713,15.6734869,17.895677Q15.709785,17.88064,15.7471504,17.868496999999998Q15.7845161,17.856355999999998,15.8227193,17.847183Q15.8609223,17.838011,15.8997273,17.831863Q15.9385324,17.825716,15.9776998,17.822632Q16.0168676,17.819547999999998,16.0561562,17.819544999999998L26.782836,17.819138000000002Q26.861532,17.819134,26.93926,17.806820000000002Q27.016987,17.794506,27.091832,17.770186000000002Q27.166677,17.745866,27.236795,17.710137Q27.306915,17.67441,27.370583,17.628154000000002Q27.434248,17.581896,27.489895,17.526249Q27.545543000000002,17.470602,27.591802,17.406937Q27.63806,17.34327,27.67379,17.273152Q27.709519999999998,17.203032999999998,27.733843,17.128191L31.048956,6.926637400000001Q31.0611,6.889272,31.076138,6.8529744Q31.091175,6.8166766,31.109013,6.7816708000000006Q31.12685,6.7466645,31.147381,6.713166Q31.16791,6.6796672,31.191002,6.6478825Q31.214096,6.6160979,31.239614,6.5862231Q31.265131,6.5563483,31.292913,6.528567300000001Q31.320696,6.5007865,31.350573,6.475271Q31.380447,6.4497554,31.412231,6.4266624Q31.444019,6.4035697,31.477518,6.3830419Q31.511017,6.362514,31.546024,6.3446777Q31.581032,6.3268414,31.617331,6.3118067Q31.653629,6.2967718,31.690994,6.284631Q31.728359,6.2724905,31.766563,6.263319Q31.804768,6.2541475,31.843573,6.2480013Q31.882378,6.2418554,31.921543,6.2387729Q31.960712,6.235690099999999,32,6.235690099999999Q32.039289,6.235690099999999,32.078458999999995,6.2387726Q32.117626,6.2418551,32.156433,6.2480011Q32.195236,6.2541471,32.23344,6.2633188Q32.271643,6.272490299999999,32.30901,6.2846308Q32.346374999999995,6.2967715,32.382675,6.3118064Q32.418972,6.3268414,32.453979000000004,6.3446774Q32.488987,6.362514,32.522486,6.3830419Q32.555983999999995,6.4035695,32.587769,6.4266622Q32.619556,6.4497552,32.649433,6.475270500000001Q32.67931,6.5007861,32.707092,6.5285668Q32.734875,6.5563478,32.760391,6.5862229Q32.785906,6.6160977,32.809,6.6478822Q32.832096,6.679667,32.852625,6.7131658000000005Q32.873154,6.7466645,32.890991,6.7816706Q32.908829,6.8166766,32.923866000000004,6.8529742Q32.938904,6.8892717,32.951043999999996,6.9266372L36.266159,17.12819Z" fill="#F8D10E" fill-opacity="1"/><g><path d="M14.84999996,59L14.84999996,58.1800003L16.8,58.1800003L16.8,54.3200002L15.1,54.3200002L15.1,53.5L17.6999998,53.5L17.6999998,58.1800003L19.5499997,58.1800003L19.5499997,59L14.84999996,59ZM17.1499999,52.5100002Q16.8199999,52.5100002,16.6299999,52.3400002Q16.4400001,52.1700001,16.4400001,51.880000100000004Q16.4400001,51.5800004,16.6299999,51.4050002Q16.8199999,51.23,17.1499999,51.23Q17.48,51.23,17.6699998,51.4050002Q17.8599999,51.5800004,17.8599999,51.880000100000004Q17.8599999,52.1700001,17.6699998,52.3400002Q17.48,52.5100002,17.1499999,52.5100002ZM23.04,59.1Q22.3199997,59.1,21.8049998,58.8599997Q21.29,58.619999899999996,21.0100002,58.170000099999996Q20.73,57.7200003,20.7199998,57.1000004L21.6199999,57.1000004Q21.6199999,57.6499996,21.9949999,57.9700003Q22.3699999,58.29,23.04,58.29Q23.6700001,58.29,24.025,57.9799995Q24.380000000000003,57.670000099999996,24.380000000000003,57.119999899999996Q24.380000000000003,56.6800003,24.145,56.3500004Q23.9099998,56.019999999999996,23.470000300000002,55.8900003L22.479999499999998,55.5799999Q21.73,55.3500004,21.3249998,54.8099999Q20.9200001,54.269999999999996,20.9200001,53.54Q20.9200001,52.9500003,21.1849999,52.5150003Q21.4499998,52.0799999,21.9299998,51.835Q22.4099998,51.5900002,23.0599995,51.5900002Q24.02,51.5900002,24.6,52.125Q25.18,52.6600003,25.190001000000002,53.5500002L24.29,53.5500002Q24.29,53.0100002,23.9650002,52.7049999Q23.6399994,52.4000001,23.0500002,52.4000001Q22.470000300000002,52.4000001,22.145000500000002,52.6800003Q21.8199997,52.96,21.8199997,53.46Q21.8199997,53.9100003,22.0599995,54.2400002Q22.3000002,54.5700002,22.75,54.71L23.75,55.0299997Q24.48,55.2600002,24.880000000000003,55.8100004Q25.28,56.3600001,25.28,57.1000004Q25.28,57.6999998,25,58.1499996Q24.719999,58.6000004,24.215,58.8500004Q23.71,59.1,23.04,59.1ZM29.04,59.1Q28.380000000000003,59.1,27.884999999999998,58.8500004Q27.39,58.6000004,27.119999999999997,58.125Q26.85,57.6499996,26.85,57L26.85,55.5Q26.85,54.8400002,27.119999999999997,54.369999899999996Q27.39,53.9000001,27.884999999999998,53.6500001Q28.380000000000003,53.4000001,29.04,53.4000001Q29.990000000000002,53.4000001,30.57,53.9100003Q31.15,54.4200001,31.18,55.3000002L30.279999,55.3000002Q30.25,54.769999999999996,29.925,54.4850001Q29.6,54.2000003,29.04,54.2000003Q28.45,54.2000003,28.1,54.5350003Q27.75,54.869999899999996,27.75,55.4899998L27.75,57Q27.75,57.619999899999996,28.1,57.96Q28.45,58.3000002,29.04,58.3000002Q29.6,58.3000002,29.925,58.0100002Q30.25,57.7200003,30.279999,57.1999998L31.18,57.1999998Q31.15,58.079999900000004,30.57,58.5900002Q29.990000000000002,59.1,29.04,59.1ZM35,59.08Q34.34,59.08,33.860001,58.829999900000004Q33.379999,58.579999900000004,33.114999999999995,58.1049995Q32.85,57.630000100000004,32.85,56.980000000000004L32.85,55.519999999999996Q32.85,54.8600001,33.114999999999995,54.3899999Q33.379999,53.9200001,33.860001,53.6700001Q34.34,53.4200001,35,53.4200001Q35.66,53.4200001,36.139999,53.6700001Q36.619999,53.9200001,36.885000000000005,54.3899999Q37.15,54.8600001,37.15,55.5100002L37.15,56.980000000000004Q37.15,57.630000100000004,36.885000000000005,58.1049995Q36.619999,58.579999900000004,36.139999,58.829999900000004Q35.66,59.08,35,59.08ZM35,58.2799997Q35.59,58.2799997,35.92,57.9499998Q36.25,57.619999899999996,36.25,56.980000000000004L36.25,55.519999999999996Q36.25,54.880000100000004,35.92,54.5500002Q35.59,54.2200003,35,54.2200003Q34.42,54.2200003,34.084998999999996,54.5500002Q33.75,54.880000100000004,33.75,55.519999999999996L33.75,56.980000000000004Q33.75,57.619999899999996,34.084998999999996,57.9499998Q34.42,58.2799997,35,58.2799997ZM39.110001,59L39.110001,53.5L39.989999999999995,53.5L39.989999999999995,54.5500002L40.200001,54.5500002L39.91,55.1999998Q39.91,54.3099999,40.295,53.855000000000004Q40.68,53.4000001,41.440000999999995,53.4000001Q42.309999000000005,53.4000001,42.825001,53.9450002Q43.34,54.4900002,43.34,55.4200001L43.34,55.75L42.440000999999995,55.75L42.440000999999995,55.5Q42.440000999999995,54.8499999,42.125,54.505000100000004Q41.809999000000005,54.1600003,41.230000000000004,54.1600003Q40.66,54.1600003,40.334998999999996,54.5100002Q40.010000000000005,54.8600001,40.010000000000005,55.5L40.010000000000005,59L39.110001,59ZM47,59.1Q46.349998,59.1,45.864999999999995,58.8400002Q45.379999,58.579999900000004,45.114999999999995,58.1049995Q44.85,57.630000100000004,44.85,57L44.85,55.5Q44.85,54.8600001,45.114999999999995,54.3899999Q45.379999,53.9200001,45.864999999999995,53.6600003Q46.349998,53.4000001,47,53.4000001Q47.650002,53.4000001,48.134998,53.6600003Q48.619999,53.9200001,48.884998,54.3899999Q49.150002,54.8600001,49.150002,55.5L49.150002,56.4700003L45.730000000000004,56.4700003L45.730000000000004,57Q45.730000000000004,57.6499996,46.060001,57.994999899999996Q46.389999,58.3400002,47,58.3400002Q47.52,58.3400002,47.84,58.1549997Q48.16,57.9700003,48.23,57.6000004L49.130001,57.6000004Q49.040001,58.29,48.455002,58.6949997Q47.869999,59.1,47,59.1ZM48.27,55.869999899999996L48.27,55.5Q48.27,54.8499999,47.945,54.5Q47.619999,54.1500001,47,54.1500001Q46.389999,54.1500001,46.060001,54.5Q45.730000000000004,54.8499999,45.730000000000004,55.5L45.730000000000004,55.79L48.34,55.79L48.27,55.869999899999996Z" fill="#F8D10E" fill-opacity="1"/></g></g></svg>